<svg width="109" height="21" viewBox="0 0 109 21" fill="none" xmlns="http://www.w3.org/2000/svg">
<path d="M10.5264 13.0996V16H2.62012V13.0996H10.5264ZM3.96289 0.359375V16H0.192383V0.359375H3.96289ZM11.4932 10.3066V10.0811C11.4932 9.22884 11.6149 8.44466 11.8584 7.72852C12.1019 7.00521 12.46 6.37858 12.9326 5.84863C13.4053 5.31868 13.9889 4.9069 14.6836 4.61328C15.3783 4.3125 16.1803 4.16211 17.0898 4.16211C18.0065 4.16211 18.8122 4.3125 19.5068 4.61328C20.2087 4.9069 20.7959 5.31868 21.2686 5.84863C21.7412 6.37858 22.0993 7.00521 22.3428 7.72852C22.5863 8.44466 22.708 9.22884 22.708 10.0811V10.3066C22.708 11.1517 22.5863 11.9359 22.3428 12.6592C22.0993 13.3753 21.7412 14.002 21.2686 14.5391C20.7959 15.069 20.2122 15.4808 19.5176 15.7744C18.8229 16.068 18.0208 16.2148 17.1113 16.2148C16.2018 16.2148 15.3962 16.068 14.6943 15.7744C13.9925 15.4808 13.4053 15.069 12.9326 14.5391C12.46 14.002 12.1019 13.3753 11.8584 12.6592C11.6149 11.9359 11.4932 11.1517 11.4932 10.3066ZM15.1133 10.0811V10.3066C15.1133 10.7435 15.1455 11.1517 15.21 11.5312C15.2744 11.9108 15.3818 12.2438 15.5322 12.5303C15.6826 12.8096 15.8867 13.028 16.1445 13.1855C16.4023 13.3431 16.7246 13.4219 17.1113 13.4219C17.4909 13.4219 17.806 13.3431 18.0566 13.1855C18.3145 13.028 18.5186 12.8096 18.6689 12.5303C18.8193 12.2438 18.9268 11.9108 18.9912 11.5312C19.0557 11.1517 19.0879 10.7435 19.0879 10.3066V10.0811C19.0879 9.65853 19.0557 9.26107 18.9912 8.88867C18.9268 8.50911 18.8193 8.17611 18.6689 7.88965C18.5186 7.59603 18.3145 7.36686 18.0566 7.20215C17.7988 7.03743 17.4766 6.95508 17.0898 6.95508C16.7103 6.95508 16.3916 7.03743 16.1338 7.20215C15.8831 7.36686 15.6826 7.59603 15.5322 7.88965C15.3818 8.17611 15.2744 8.50911 15.21 8.88867C15.1455 9.26107 15.1133 9.65853 15.1133 10.0811ZM31.624 4.37695H34.9111V15.5488C34.9111 16.623 34.6641 17.5326 34.1699 18.2773C33.6758 19.0293 32.9847 19.5986 32.0967 19.9854C31.2158 20.3792 30.1846 20.5762 29.0029 20.5762C28.4801 20.5762 27.9466 20.5081 27.4023 20.3721C26.8581 20.2432 26.3496 20.0498 25.877 19.792C25.4043 19.5342 25.0068 19.2155 24.6846 18.8359L26.1992 16.709C26.4928 17.0384 26.8617 17.3177 27.3057 17.5469C27.7497 17.7832 28.2725 17.9014 28.874 17.9014C29.3968 17.9014 29.8337 17.8083 30.1846 17.6221C30.5426 17.4359 30.8148 17.1637 31.001 16.8057C31.1872 16.4548 31.2803 16.0286 31.2803 15.5273V7.12695L31.624 4.37695ZM23.9004 10.3281V10.1025C23.9004 9.22168 24.0078 8.4196 24.2227 7.69629C24.4447 6.96582 24.7598 6.33919 25.168 5.81641C25.5833 5.28646 26.0846 4.87826 26.6719 4.5918C27.2591 4.30534 27.9215 4.16211 28.6592 4.16211C29.4541 4.16211 30.1058 4.31608 30.6143 4.62402C31.1299 4.9248 31.5417 5.34733 31.8496 5.8916C32.1647 6.43587 32.4082 7.07324 32.5801 7.80371C32.7591 8.52702 32.9095 9.30762 33.0312 10.1455V10.4141C32.9095 11.2018 32.7412 11.9466 32.5264 12.6484C32.3187 13.3431 32.0465 13.959 31.71 14.4961C31.3734 15.0332 30.9508 15.4557 30.4424 15.7637C29.9411 16.0645 29.3395 16.2148 28.6377 16.2148C27.9072 16.2148 27.2484 16.068 26.6611 15.7744C26.0811 15.4808 25.5833 15.069 25.168 14.5391C24.7598 14.0091 24.4447 13.3861 24.2227 12.6699C24.0078 11.9538 23.9004 11.1732 23.9004 10.3281ZM27.5205 10.1025V10.3281C27.5205 10.765 27.5599 11.1696 27.6387 11.542C27.7246 11.9144 27.8535 12.2438 28.0254 12.5303C28.1973 12.8096 28.4085 13.028 28.6592 13.1855C28.917 13.3431 29.2178 13.4219 29.5615 13.4219C30.0843 13.4219 30.5068 13.3109 30.8291 13.0889C31.1514 12.8669 31.3841 12.5518 31.5273 12.1436C31.6706 11.7354 31.7314 11.2555 31.71 10.7041V9.85547C31.7243 9.38281 31.6921 8.96745 31.6133 8.60938C31.5345 8.24414 31.4092 7.93978 31.2373 7.69629C31.0726 7.4528 30.8506 7.27018 30.5713 7.14844C30.2992 7.01953 29.9697 6.95508 29.583 6.95508C29.2464 6.95508 28.9492 7.03385 28.6914 7.19141C28.4336 7.34896 28.2188 7.57096 28.0469 7.85742C27.875 8.13672 27.7425 8.46973 27.6494 8.85645C27.5635 9.236 27.5205 9.65137 27.5205 10.1025ZM36.5439 10.3066V10.0811C36.5439 9.22884 36.6657 8.44466 36.9092 7.72852C37.1527 7.00521 37.5107 6.37858 37.9834 5.84863C38.4561 5.31868 39.0397 4.9069 39.7344 4.61328C40.429 4.3125 41.2311 4.16211 42.1406 4.16211C43.0573 4.16211 43.863 4.3125 44.5576 4.61328C45.2594 4.9069 45.8467 5.31868 46.3193 5.84863C46.792 6.37858 47.1501 7.00521 47.3936 7.72852C47.637 8.44466 47.7588 9.22884 47.7588 10.0811V10.3066C47.7588 11.1517 47.637 11.9359 47.3936 12.6592C47.1501 13.3753 46.792 14.002 46.3193 14.5391C45.8467 15.069 45.263 15.4808 44.5684 15.7744C43.8737 16.068 43.0716 16.2148 42.1621 16.2148C41.2526 16.2148 40.4469 16.068 39.7451 15.7744C39.0433 15.4808 38.4561 15.069 37.9834 14.5391C37.5107 14.002 37.1527 13.3753 36.9092 12.6592C36.6657 11.9359 36.5439 11.1517 36.5439 10.3066ZM40.1641 10.0811V10.3066C40.1641 10.7435 40.1963 11.1517 40.2607 11.5312C40.3252 11.9108 40.4326 12.2438 40.583 12.5303C40.7334 12.8096 40.9375 13.028 41.1953 13.1855C41.4531 13.3431 41.7754 13.4219 42.1621 13.4219C42.5417 13.4219 42.8568 13.3431 43.1074 13.1855C43.3652 13.028 43.5693 12.8096 43.7197 12.5303C43.8701 12.2438 43.9775 11.9108 44.042 11.5312C44.1064 11.1517 44.1387 10.7435 44.1387 10.3066V10.0811C44.1387 9.65853 44.1064 9.26107 44.042 8.88867C43.9775 8.50911 43.8701 8.17611 43.7197 7.88965C43.5693 7.59603 43.3652 7.36686 43.1074 7.20215C42.8496 7.03743 42.5273 6.95508 42.1406 6.95508C41.7611 6.95508 41.4424 7.03743 41.1846 7.20215C40.9339 7.36686 40.7334 7.59603 40.583 7.88965C40.4326 8.17611 40.3252 8.50911 40.2607 8.88867C40.1963 9.26107 40.1641 9.65853 40.1641 10.0811ZM53.5488 0.359375V16H49.7891V0.359375H53.5488ZM59.6826 6.61133V20.4688H56.0625V4.37695H59.4355L59.6826 6.61133ZM66.8154 10.0488V10.2744C66.8154 11.1195 66.7188 11.9036 66.5254 12.627C66.332 13.3503 66.0456 13.9805 65.666 14.5176C65.2865 15.0547 64.8138 15.4736 64.248 15.7744C63.6895 16.068 63.0413 16.2148 62.3037 16.2148C61.609 16.2148 61.0111 16.0609 60.5098 15.7529C60.0085 15.445 59.5895 15.0189 59.2529 14.4746C58.9163 13.9303 58.6442 13.3073 58.4365 12.6055C58.2288 11.9036 58.0641 11.1624 57.9424 10.3818V10.0918C58.0641 9.25391 58.2288 8.47689 58.4365 7.76074C58.6442 7.03743 58.9163 6.40723 59.2529 5.87012C59.5895 5.33301 60.0049 4.91406 60.499 4.61328C61.0003 4.3125 61.5983 4.16211 62.293 4.16211C63.0306 4.16211 63.6787 4.30176 64.2373 4.58105C64.8031 4.86035 65.2757 5.26139 65.6553 5.78418C66.042 6.2998 66.332 6.91927 66.5254 7.64258C66.7188 8.36589 66.8154 9.16797 66.8154 10.0488ZM63.1953 10.2744V10.0488C63.1953 9.59766 63.1631 9.18587 63.0986 8.81348C63.0342 8.43392 62.9303 8.10449 62.7871 7.8252C62.651 7.5459 62.4684 7.33105 62.2393 7.18066C62.0101 7.03027 61.7272 6.95508 61.3906 6.95508C61.0039 6.95508 60.6781 7.01595 60.4131 7.1377C60.1553 7.25228 59.9476 7.43132 59.79 7.6748C59.6396 7.91113 59.5322 8.20833 59.4678 8.56641C59.4105 8.91732 59.3854 9.3291 59.3926 9.80176V10.6826C59.3783 11.2269 59.432 11.7067 59.5537 12.1221C59.6755 12.5303 59.8867 12.849 60.1875 13.0781C60.4883 13.3073 60.8965 13.4219 61.4121 13.4219C61.7559 13.4219 62.0423 13.3431 62.2715 13.1855C62.5007 13.0208 62.6833 12.7952 62.8193 12.5088C62.9554 12.2152 63.0521 11.8786 63.1094 11.499C63.1667 11.1195 63.1953 10.7113 63.1953 10.2744ZM74.5176 12.7344C74.5176 12.5339 74.4495 12.362 74.3135 12.2188C74.1846 12.0684 73.9554 11.9323 73.626 11.8105C73.2965 11.6816 72.8346 11.5527 72.2402 11.4238C71.6745 11.3021 71.141 11.141 70.6396 10.9404C70.1455 10.7399 69.7122 10.4964 69.3398 10.21C68.9674 9.9235 68.6738 9.58333 68.459 9.18945C68.2513 8.79557 68.1475 8.3444 68.1475 7.83594C68.1475 7.3418 68.2513 6.8763 68.459 6.43945C68.6738 5.99544 68.9854 5.60514 69.3936 5.26855C69.8089 4.9248 70.3138 4.65625 70.9082 4.46289C71.5026 4.26237 72.1794 4.16211 72.9385 4.16211C73.984 4.16211 74.8864 4.32324 75.6455 4.64551C76.4046 4.96061 76.9883 5.40462 77.3965 5.97754C77.8118 6.54329 78.0195 7.19857 78.0195 7.94336H74.3994C74.3994 7.64974 74.3493 7.39909 74.249 7.19141C74.1559 6.98372 74.002 6.82617 73.7871 6.71875C73.5723 6.60417 73.2858 6.54688 72.9277 6.54688C72.6771 6.54688 72.4479 6.59342 72.2402 6.68652C72.0397 6.77962 71.8786 6.90853 71.7568 7.07324C71.6351 7.23796 71.5742 7.43132 71.5742 7.65332C71.5742 7.81087 71.61 7.9541 71.6816 8.08301C71.7604 8.20475 71.8786 8.31934 72.0361 8.42676C72.1937 8.52702 72.3942 8.62012 72.6377 8.70605C72.8812 8.78483 73.1748 8.85645 73.5186 8.9209C74.2992 9.06413 75.0296 9.26823 75.71 9.5332C76.3903 9.79818 76.9417 10.1742 77.3643 10.6611C77.7939 11.1481 78.0088 11.8034 78.0088 12.627C78.0088 13.1426 77.8906 13.6188 77.6543 14.0557C77.418 14.4854 77.0778 14.8649 76.6338 15.1943C76.1898 15.5166 75.6562 15.7673 75.0332 15.9463C74.4102 16.1253 73.7083 16.2148 72.9277 16.2148C71.8177 16.2148 70.8796 16.0179 70.1133 15.624C69.347 15.223 68.7669 14.7217 68.373 14.1201C67.9863 13.5114 67.793 12.8955 67.793 12.2725H71.166C71.1803 12.6305 71.2663 12.9242 71.4238 13.1533C71.5885 13.3825 71.807 13.5508 72.0791 13.6582C72.3512 13.7656 72.6663 13.8193 73.0244 13.8193C73.3538 13.8193 73.626 13.7728 73.8408 13.6797C74.0628 13.5866 74.2311 13.4613 74.3457 13.3037C74.4603 13.139 74.5176 12.9492 74.5176 12.7344ZM86.4951 13.1748V4.37695H90.126V16H86.7314L86.4951 13.1748ZM86.8389 10.8115L87.7842 10.79C87.7842 11.5706 87.6911 12.2939 87.5049 12.96C87.3187 13.6188 87.043 14.1917 86.6777 14.6787C86.3197 15.1657 85.8757 15.5452 85.3457 15.8174C84.8229 16.0824 84.2178 16.2148 83.5303 16.2148C82.9574 16.2148 82.431 16.1361 81.9512 15.9785C81.4785 15.8138 81.0703 15.5596 80.7266 15.2158C80.3828 14.8649 80.1143 14.4173 79.9209 13.873C79.7347 13.3216 79.6416 12.6628 79.6416 11.8965V4.37695H83.2617V11.918C83.2617 12.1758 83.2939 12.3978 83.3584 12.584C83.4229 12.7702 83.516 12.9277 83.6377 13.0566C83.7594 13.1784 83.9098 13.2715 84.0889 13.3359C84.2751 13.3932 84.4863 13.4219 84.7227 13.4219C85.2669 13.4219 85.693 13.3073 86.001 13.0781C86.3089 12.849 86.5238 12.5374 86.6455 12.1436C86.7744 11.7497 86.8389 11.3057 86.8389 10.8115ZM95.7764 6.83691V16H92.1562V4.37695H95.5508L95.7764 6.83691ZM95.3359 9.79102L94.5088 9.8125C94.5088 8.99609 94.6055 8.24414 94.7988 7.55664C94.9922 6.86914 95.2786 6.27116 95.6582 5.7627C96.0378 5.25423 96.5033 4.86035 97.0547 4.58105C97.6133 4.30176 98.2578 4.16211 98.9883 4.16211C99.4967 4.16211 99.9587 4.24089 100.374 4.39844C100.789 4.54883 101.147 4.78874 101.448 5.11816C101.749 5.44043 101.978 5.86296 102.136 6.38574C102.3 6.90137 102.383 7.52083 102.383 8.24414V16H98.7627V8.70605C98.7627 8.21191 98.7054 7.83952 98.5908 7.58887C98.4834 7.33822 98.3258 7.16992 98.1182 7.08398C97.9105 6.99805 97.6562 6.95508 97.3555 6.95508C97.0404 6.95508 96.7575 7.02669 96.5068 7.16992C96.2562 7.31315 96.0413 7.51367 95.8623 7.77148C95.6904 8.02214 95.5579 8.31934 95.4648 8.66309C95.3789 9.00684 95.3359 9.38281 95.3359 9.79102ZM101.975 9.79102L100.965 9.8125C100.965 8.99609 101.054 8.24414 101.233 7.55664C101.42 6.86914 101.695 6.27116 102.061 5.7627C102.433 5.25423 102.895 4.86035 103.446 4.58105C103.998 4.30176 104.639 4.16211 105.369 4.16211C105.899 4.16211 106.386 4.24089 106.83 4.39844C107.274 4.55599 107.657 4.81022 107.979 5.16113C108.302 5.51204 108.552 5.97754 108.731 6.55762C108.91 7.13053 109 7.83952 109 8.68457V16H105.369V8.68457C105.369 8.20475 105.312 7.8431 105.197 7.59961C105.09 7.34896 104.932 7.18066 104.725 7.09473C104.517 7.00163 104.27 6.95508 103.983 6.95508C103.64 6.95508 103.342 7.02669 103.092 7.16992C102.841 7.31315 102.63 7.51367 102.458 7.77148C102.293 8.02214 102.172 8.31934 102.093 8.66309C102.014 9.00684 101.975 9.38281 101.975 9.79102Z" fill="white"/>
</svg>
