<svg width="91" height="42" viewBox="0 0 91 42" fill="none" xmlns="http://www.w3.org/2000/svg">
<path d="M2.32209 30V11.0909H14.4357V13.9624H5.74751V19.0959H13.6048V21.9673H5.74751V30H2.32209ZM25.5591 24.0355V15.8182H28.9015V30H25.6607V27.4794H25.513C25.1929 28.2734 24.6666 28.9228 23.9341 29.4276C23.2078 29.9323 22.3122 30.1847 21.2473 30.1847C20.3179 30.1847 19.4962 29.9785 18.7821 29.5661C18.0743 29.1475 17.5203 28.5412 17.1202 27.7472C16.7201 26.947 16.5201 25.9806 16.5201 24.848V15.8182H19.8624V24.331C19.8624 25.2296 20.1086 25.9437 20.601 26.473C21.0935 27.0024 21.7398 27.267 22.54 27.267C23.0324 27.267 23.5094 27.147 23.9711 26.907C24.4327 26.6669 24.8113 26.3099 25.1067 25.8359C25.4083 25.3558 25.5591 24.7557 25.5591 24.0355ZM35.6808 11.0909V30H32.3384V11.0909H35.6808ZM42.46 11.0909V30H39.1177V11.0909H42.46ZM51.1598 30.2493C50.0457 30.2493 49.0485 29.9631 48.1683 29.3906C47.2881 28.8182 46.5926 27.9872 46.0817 26.8977C45.5708 25.8082 45.3153 24.4848 45.3153 22.9276C45.3153 21.3518 45.5739 20.0223 46.0909 18.9389C46.6141 17.8494 47.3189 17.0277 48.2053 16.4737C49.0916 15.9136 50.0795 15.6335 51.169 15.6335C52 15.6335 52.6832 15.7751 53.2188 16.0582C53.7543 16.3352 54.179 16.6707 54.4929 17.0646C54.8068 17.4524 55.05 17.8187 55.2223 18.1634H55.3608V11.0909H58.7124V30H55.4254V27.7656H55.2223C55.05 28.1103 54.8007 28.4766 54.4744 28.8643C54.1482 29.246 53.7173 29.5722 53.1818 29.843C52.6463 30.1139 51.9723 30.2493 51.1598 30.2493ZM52.0923 27.5071C52.8002 27.5071 53.4034 27.3163 53.902 26.9347C54.4006 26.5469 54.7791 26.0083 55.0376 25.3189C55.2962 24.6295 55.4254 23.8262 55.4254 22.9091C55.4254 21.992 55.2962 21.1948 55.0376 20.5178C54.7853 19.8407 54.4098 19.3144 53.9112 18.9389C53.4188 18.5634 52.8125 18.3757 52.0923 18.3757C51.3475 18.3757 50.7259 18.5696 50.2273 18.9574C49.7287 19.3452 49.3532 19.8807 49.1009 20.5639C48.8485 21.2472 48.7223 22.0289 48.7223 22.9091C48.7223 23.7955 48.8485 24.5864 49.1009 25.282C49.3594 25.9714 49.7379 26.5161 50.2365 26.9162C50.7412 27.3101 51.3598 27.5071 52.0923 27.5071ZM68.5524 30.277C67.1305 30.277 65.9025 29.9815 64.8684 29.3906C63.8405 28.7936 63.0495 27.9503 62.4956 26.8608C61.9416 25.7652 61.6646 24.4756 61.6646 22.9922C61.6646 21.5334 61.9416 20.2531 62.4956 19.1513C63.0557 18.0433 63.8374 17.1816 64.8407 16.5661C65.844 15.9444 67.0228 15.6335 68.377 15.6335C69.251 15.6335 70.0758 15.7751 70.8514 16.0582C71.6331 16.3352 72.3225 16.7661 72.9196 17.3509C73.5228 17.9356 73.9967 18.6804 74.3414 19.5852C74.6861 20.4839 74.8585 21.5549 74.8585 22.7983V23.8232H63.2342V21.5703H71.6547C71.6485 20.9302 71.51 20.3608 71.2392 19.8622C70.9683 19.3575 70.5898 18.9605 70.1035 18.6712C69.6234 18.3819 69.0633 18.2372 68.4231 18.2372C67.7399 18.2372 67.1397 18.4034 66.6227 18.7358C66.1056 19.062 65.7025 19.4929 65.4132 20.0284C65.13 20.5578 64.9854 21.1394 64.9792 21.7734V23.7401C64.9792 24.5649 65.13 25.2727 65.4316 25.8636C65.7333 26.4484 66.1549 26.8977 66.6966 27.2116C67.2382 27.5194 67.8722 27.6733 68.5985 27.6733C69.0848 27.6733 69.5249 27.6056 69.9189 27.4702C70.3128 27.3286 70.6544 27.1224 70.9437 26.8516C71.233 26.5807 71.4515 26.2453 71.5993 25.8452L74.72 26.196C74.523 27.0208 74.1476 27.741 73.5936 28.3565C73.0458 28.9659 72.344 29.4399 71.4885 29.7784C70.6329 30.1108 69.6542 30.277 68.5524 30.277ZM89.9474 15.8182L84.897 30H81.2038L76.1534 15.8182H79.7173L82.9766 26.353H83.1243L86.3928 15.8182H89.9474Z" fill="#1A1523"/>
</svg>
