<?xml version="1.0" standalone="no"?>
<!DOCTYPE svg PUBLIC "-//W3C//DTD SVG 20010904//EN"
 "http://www.w3.org/TR/2001/REC-SVG-20010904/DTD/svg10.dtd">
<svg version="1.0" xmlns="http://www.w3.org/2000/svg"
 width="700.000000pt" height="700.000000pt" viewBox="0 0 700.000000 700.000000"
 preserveAspectRatio="xMidYMid meet">
<metadata>
Created by potrace 1.14, written by Peter Selinger 2001-2017
</metadata>
<g transform="translate(0.000000,700.000000) scale(0.100000,-0.100000)"
fill="#000000" stroke="none">
<path d="M1230 6989 c-533 -69 -972 -421 -1149 -922 -17 -49 -41 -134 -53
-190 l-23 -102 0 -2275 0 -2275 23 -102 c125 -568 527 -970 1095 -1095 l102
-23 2275 0 2275 0 102 23 c566 125 970 529 1095 1095 l23 102 0 2275 0 2275
-23 102 c-125 566 -522 964 -1090 1095 l-97 22 -2245 2 c-1235 1 -2274 -2
-2310 -7z m3380 -2009 l0 -250 -760 0 -760 0 0 -450 0 -450 690 0 690 0 0
-250 0 -250 -690 0 -690 0 0 -700 0 -700 -300 0 -300 0 0 1650 0 1650 1060 0
1060 0 0 -250z"/>
</g>
</svg>
